<svg xmlns="http://www.w3.org/2000/svg" viewBox="0 0 800 400" role="img" aria-label="Девочка и сотрудница муниципалитета обсуждают план двора"><rect width="800" height="400" fill="#b9dce0"/><rect width="800" height="400" fill="#e7d8b7"/><rect y="310" width="800" height="90" fill="#c49f80"/><rect x="120" y="35" width="560" height="195" rx="8" fill="#658a7b"/><rect x="135" y="50" width="530" height="166" fill="#eee5cb"/><path d="M170 130H625M400 70V195" stroke="#c7b48d" stroke-width="27"/><g fill="#77957e"><rect x="210" y="75" width="55" height="22"/><rect x="475" y="75" width="55" height="22"/><rect x="475" y="165" width="55" height="22"/></g><g transform="translate(275 240)"><path d="M-27 100V42Q0 20 27 42V100" fill="#7e9a6e"/><circle cy="9" r="23" fill="#edbb96"/><path d="M-23 9q-4-41 30-32 22 5 16 28l-11-19q-22 12-35 23" fill="#70503e"/><path d="M-9 10h2m14 0h2M-5 23q5 4 10 0" stroke="#73514b" stroke-width="2" fill="none"/><path d="M-22 40 23 83" stroke="#354654" stroke-width="8"/></g><g transform="translate(510 220)"><path d="M-27 100V42Q0 20 27 42V100" fill="#8f7d9c"/><circle cy="9" r="23" fill="#edbb96"/><path d="M-23 9q-4-41 30-32 22 5 16 28l-11-19q-22 12-35 23" fill="#70503e"/><path d="M-9 10h2m14 0h2M-5 23q5 4 10 0" stroke="#73514b" stroke-width="2" fill="none"/></g><rect x="158" y="312" width="486" height="20" rx="6" fill="#a58060"/><path d="M192 331v69m420-69v69" stroke="#947359" stroke-width="18"/><path d="M330 297q40-12 75 0 35-12 75 0v21q-40-10-75 0-35-10-75 0Z" fill="#faf0d3"/><path d="M405 298v18" stroke="#bda989" stroke-width="2"/></svg>